HIERARCHY
ROOT hip
{
  OFFSET 0 0 0
  CHANNELS 6 Xposition Yposition Zposition Zrotation Yrotation Xrotation
  JOINT abdomen
  {
    OFFSET 0 20.6881 -0.73152
    CHANNELS 3 Zrotation Xrotation Yrotation
    JOINT chest
    {
      OFFSET 0 11.7043 -0.48768
      CHANNELS 3 Zrotation Xrotation Yrotation
      JOINT neck
      {
        OFFSET 0 22.1894 -2.19456
        CHANNELS 3 Zrotation Xrotation Yrotation
        JOINT head
        {
          OFFSET -0.24384 7.07133 1.2192
          CHANNELS 3 Zrotation Xrotation Yrotation
          JOINT leftEye
          {
            OFFSET 4.14528 8.04674 8.04672
            CHANNELS 3 Zrotation Xrotation Yrotation
            End Site
            {
              OFFSET 1 0 0
            }
          }
          JOINT rightEye
          {
            OFFSET -3.6576 8.04674 8.04672
            CHANNELS 3 Zrotation Xrotation Yrotation
            End Site
            {
              OFFSET 1 0 0
            }
          }
        }
      }
      JOINT rCollar
      {
        OFFSET -2.68224 19.2634 -4.8768
        CHANNELS 3 Zrotation Xrotation Yrotation
        JOINT rShldr
        {
          OFFSET -8.77824 -1.95073 1.46304
          CHANNELS 3 Zrotation Xrotation Yrotation
          JOINT rForeArm
          {
            OFFSET -28.1742 -1.7115 0.48768
            CHANNELS 3 Zrotation Xrotation Yrotation
            JOINT rHand
            {
              OFFSET -22.5879 0.773209 7.07136
              CHANNELS 3 Zrotation Xrotation Yrotation
              JOINT rThumb1
              {
                OFFSET -1.2192 -0.487915 3.41376
                CHANNELS 3 Zrotation Xrotation Yrotation
                JOINT rThumb2
                {
                  OFFSET -3.37035 -0.52449 3.41376
                  CHANNELS 3 Zrotation Xrotation Yrotation
                  End Site
                  {
                    OFFSET -1.78271 -1.18214 1.43049
                  }
                }
              }
              JOINT rIndex1
              {
                OFFSET -7.75947 0.938293 5.60832
                CHANNELS 3 Zrotation Xrotation Yrotation
                JOINT rIndex2
                {
                  OFFSET -2.54057 -0.884171 1.56538
                  CHANNELS 3 Zrotation Xrotation Yrotation
                  End Site
                  {
                    OFFSET -1.62519 -0.234802 1.16502
                  }
                }
              }
              JOINT rMid1
              {
                OFFSET -8.24714 1.18213 3.41376
                CHANNELS 3 Zrotation Xrotation Yrotation
                JOINT rMid2
                {
                  OFFSET -3.10165 -0.590103 1.0647
                  CHANNELS 3 Zrotation Xrotation Yrotation
                  End Site
                  {
                    OFFSET -2.48547 -0.328903 0.83742
                  }
                }
              }
              JOINT rRing1
              {
                OFFSET -8.82822 0.546677 1.51678
                CHANNELS 3 Zrotation Xrotation Yrotation
                JOINT rRing2
                {
                  OFFSET -2.60934 -0.819778 -0.0198488
                  CHANNELS 3 Zrotation Xrotation Yrotation
                  End Site
                  {
                    OFFSET -2.33842 -0.294052 0.168128
                  }
                }
              }
              JOINT rPinky1
              {
                OFFSET -8.27202 -0.0477905 -0.4584
                CHANNELS 3 Zrotation Xrotation Yrotation
                JOINT rPinky2
                {
                  OFFSET -1.82734 -0.647385 -0.700984
                  CHANNELS 3 Zrotation Xrotation Yrotation
                  End Site
                  {
                    OFFSET -1.69225 -0.51767 -0.607171
                  }
                }
              }
            }
          }
        }
      }
      JOINT lCollar
      {
        OFFSET 2.68224 19.2634 -4.8768
        CHANNELS 3 Zrotation Xrotation Yrotation
        JOINT lShldr
        {
          OFFSET 8.77824 -1.95073 1.46304
          CHANNELS 3 Zrotation Xrotation Yrotation
          JOINT lForeArm
          {
            OFFSET 28.1742 -1.7115 0.48768
            CHANNELS 3 Zrotation Xrotation Yrotation
            JOINT lHand
            {
              OFFSET 22.5879 0.773209 7.07136
              CHANNELS 3 Zrotation Xrotation Yrotation
              JOINT lThumb1
              {
                OFFSET 1.2192 -0.487915 3.41376
                CHANNELS 3 Zrotation Xrotation Yrotation
                JOINT lThumb2
                {
                  OFFSET 3.37035 -0.52449 3.41376
                  CHANNELS 3 Zrotation Xrotation Yrotation
                  End Site
                  {
                    OFFSET 1.78271 -1.18214 1.43049
                  }
                }
              }
              JOINT lIndex1
              {
                OFFSET 7.75947 0.938293 5.60832
                CHANNELS 3 Zrotation Xrotation Yrotation
                JOINT lIndex2
                {
                  OFFSET 2.54057 -0.884171 1.56538
                  CHANNELS 3 Zrotation Xrotation Yrotation
                  End Site
                  {
                    OFFSET 1.62519 -0.234802 1.16502
                  }
                }
              }
              JOINT lMid1
              {
                OFFSET 8.24714 1.18213 3.41376
                CHANNELS 3 Zrotation Xrotation Yrotation
                JOINT lMid2
                {
                  OFFSET 3.10165 -0.590103 1.0647
                  CHANNELS 3 Zrotation Xrotation Yrotation
                  End Site
                  {
                    OFFSET 2.48547 -0.328903 0.83742
                  }
                }
              }
              JOINT lRing1
              {
                OFFSET 8.82822 0.546677 1.51678
                CHANNELS 3 Zrotation Xrotation Yrotation
                JOINT lRing2
                {
                  OFFSET 2.60934 -0.819778 -0.0198488
                  CHANNELS 3 Zrotation Xrotation Yrotation
                  End Site
                  {
                    OFFSET 2.33842 -0.294052 0.168128
                  }
                }
              }
              JOINT lPinky1
              {
                OFFSET 8.27202 -0.0477905 -0.4584
                CHANNELS 3 Zrotation Xrotation Yrotation
                JOINT lPinky2
                {
                  OFFSET 1.82734 -0.647385 -0.700984
                  CHANNELS 3 Zrotation Xrotation Yrotation
                  End Site
                  {
                    OFFSET 1.69225 -0.51767 -0.607171
                  }
                }
              }
            }
          }
        }
      }
    }
  }
  JOINT rButtock
  {
    OFFSET -8.77824 4.35084 1.2192
    CHANNELS 3 Zrotation Xrotation Yrotation
    JOINT rThigh
    {
      OFFSET 0 -1.70687 -2.19456
      CHANNELS 3 Zrotation Xrotation Yrotation
      JOINT rShin
      {
        OFFSET 0 -36.8199 0.73152
        CHANNELS 3 Zrotation Xrotation Yrotation
        JOINT rFoot
        {
          OFFSET 0.73152 -45.1104 -5.12064
          CHANNELS 3 Zrotation Xrotation Yrotation
          End Site
          {
            OFFSET -1.1221 -3.69964 12.103
          }
        }
      }
    }
  }
  JOINT lButtock
  {
    OFFSET 8.77824 4.35084 1.2192
    CHANNELS 3 Zrotation Xrotation Yrotation
    JOINT lThigh
    {
      OFFSET 0 -1.70687 -2.19456
      CHANNELS 3 Zrotation Xrotation Yrotation
      JOINT lShin
      {
        OFFSET 0 -36.8199 0.73152
        CHANNELS 3 Zrotation Xrotation Yrotation
        JOINT lFoot
        {
          OFFSET -0.73152 -45.1104 -5.12064
          CHANNELS 3 Zrotation Xrotation Yrotation
          End Site
          {
            OFFSET 1.1221 -3.69964 12.103
          }
        }
      }
    }
  }
}
MOTION
Frames:	7
Frame Time:	0.00833333
-4.30434 84.1002 33.2854 -2.4851 -5.9883 3.1193 -5.88227 5.80174 -1.67109 1.40923 -0.948255 -0.563541 4.01901 2.3182 0.0196161 3.33147 14.0018 -1.47582 -0.0 0.0 0.0 -0.0 0.0 0.0 -1.51051e-13 -2.54442e-13 -1.74831e-13 26.1389 62.3935 54.1148 -28.4137 -36.7065 78.1981 -0.0367213 5.46136 0.769901 9.93842e-10 6.37411e-09 -2.15898e-09 1.70997e-09 1.10014e-08 -3.73241e-09 9.93842e-10 6.37411e-09 -2.15899e-09 7.73091 5.47488 0.417314 9.93839e-10 6.37412e-09 -2.15898e-09 2.90554 0.965183 0.102902 9.93846e-10 6.37412e-09 -2.15898e-09 10.2786 0.731801 0.0259123 9.93843e-10 6.37412e-09 -2.15897e-09 2.22167 -0.733487 -0.20892 -1.51112e-13 -2.54447e-13 -1.7498e-13 -11.7253 32.0112 -39.1474 27.1085 -26.7068 -62.0067 0.175718 -11.8611 1.69144 -5.52014e-10 4.7417e-09 1.21531e-09 -9.64281e-10 8.23388e-09 2.09721e-09 -5.52025e-10 4.74167e-09 1.21532e-09 -7.73091 5.47488 -0.417314 -5.52014e-10 4.74169e-09 1.21532e-09 -2.90554 0.965183 -0.102902 -5.52028e-10 4.74172e-09 1.21532e-09 -10.2786 0.731801 -0.0259123 -5.52006e-10 4.7417e-09 1.21531e-09 -2.22167 -0.733487 0.20892 -2.03217e-16 0.0 -3.88251e-19 -21.5839 -2.89784 -0.0130238 -0.000759706 -0.648319 -0.00617685 0.429315 3.54286 -0.00452464 2.03217e-16 0.0 3.88251e-19 8.16332 -10.5055 -5.27668 0.0503963 22.662 -0.618514 6.92048 -19.1569 19.1397
-4.33888 84.1066 33.2982 -2.4621 -6.1102 3.0707 -5.81215 5.87662 -1.55965 1.51217 -0.962217 -0.531175 3.99178 2.30134 -0.0136117 3.17345 14.0823 -1.52043 -0.0 0.0 0.0 -0.0 0.0 0.0 -1.37299e-13 -2.31173e-13 -9.71882e-14 25.5107 62.7016 54.9187 -28.4395 -36.2521 77.3681 -0.0339467 5.21695 0.735297 1.07185e-09 5.67985e-09 -1.74868e-09 1.84561e-09 9.80504e-09 -3.02435e-09 1.07185e-09 5.67984e-09 -1.74869e-09 7.73091 5.47488 0.417314 1.07185e-09 5.67985e-09 -1.74868e-09 2.90554 0.965183 0.102902 1.07185e-09 5.67985e-09 -1.74868e-09 10.2786 0.731801 0.0259123 1.07185e-09 5.67985e-09 -1.74867e-09 2.22167 -0.733487 -0.20892 -1.37337e-13 -2.31175e-13 -9.73303e-14 -10.6423 32.1881 -39.0598 27.092 -26.6499 -61.9157 0.164816 -11.4995 1.63839 -6.29826e-10 4.40087e-09 7.83001e-10 -1.09502e-09 7.62533e-09 1.34823e-09 -6.29838e-10 4.40085e-09 7.83016e-10 -7.73091 5.47488 -0.417314 -6.29826e-10 4.40087e-09 7.83007e-10 -2.90554 0.965183 -0.102902 -6.29841e-10 4.4009e-09 7.8301e-10 -10.2786 0.731801 -0.0259123 -6.29819e-10 4.40087e-09 7.82996e-10 -2.22167 -0.733487 0.20892 -2.03217e-16 0.0 -3.88251e-19 -21.5847 -2.8959 -0.0130309 -0.000772436 -0.657357 -0.0062743 0.42714 3.54995 -0.00412351 2.03217e-16 0.0 3.88251e-19 8.14048 -10.3791 -5.21798 0.0494408 22.613 -0.618363 6.96736 -19.2233 19.2047
-4.35643 84.114 33.3115 -2.4789 -6.2397 3.0063 -5.69573 5.9858 -1.45037 1.60447 -0.968066 -0.499344 3.92737 2.23537 -0.0761392 3.0225 14.1163 -1.61423 -0.0 0.0 0.0 -0.0 0.0 0.0 -1.04529e-13 -1.71852e-13 2.77522e-14 25.1608 62.8476 55.4064 -28.4514 -35.6396 76.3116 -0.0323209 5.08416 0.716487 1.149e-09 4.36788e-09 -1.03253e-09 1.98037e-09 7.54319e-09 -1.78859e-09 1.149e-09 4.36787e-09 -1.03254e-09 7.73091 5.47488 0.417314 1.149e-09 4.36789e-09 -1.03254e-09 2.90554 0.965183 0.102902 1.14901e-09 4.36789e-09 -1.03253e-09 10.2786 0.731801 0.0259123 1.149e-09 4.36789e-09 -1.03253e-09 2.22167 -0.733487 -0.20892 -1.04549e-13 -1.71847e-13 2.76093e-14 -9.6089 32.5203 -39.1821 27.0416 -26.4771 -61.637 0.153459 -11.1081 1.58114 -6.39785e-10 3.17167e-09 -6.17478e-12 -1.1053e-09 5.46798e-09 -1.75595e-11 -6.39796e-10 3.17167e-09 -6.15985e-12 -7.73091 5.47488 -0.417314 -6.39783e-10 3.17167e-09 -6.16945e-12 -2.90554 0.965183 -0.102902 -6.398e-10 3.17169e-09 -6.16557e-12 -10.2786 0.731801 -0.0259123 -6.3978e-10 3.17167e-09 -6.18094e-12 -2.22167 -0.733487 0.20892 -2.03217e-16 0.0 -3.88251e-19 -21.5861 -2.89469 -0.0130279 -0.000779888 -0.665597 -0.0063266 0.426006 3.55699 -0.00387235 2.03217e-16 0.0 3.88251e-19 8.13805 -10.2537 -5.19202 0.0486559 22.5808 -0.617995 6.98702 -19.3275 19.18
-4.34352 84.1192 33.3212 -2.4383 -6.3382 2.9373 -5.55571 6.10607 -1.36931 1.67637 -0.965474 -0.475522 3.8417 2.1472 -0.143722 2.89579 14.1413 -1.71614 -0.0 0.0 0.0 -0.0 0.0 0.0 -6.68491e-14 -1.05325e-13 1.55154e-13 25.0589 62.8571 55.5831 -28.4371 -35.0038 75.2888 -0.0317788 5.05806 0.712766 1.17933e-09 2.83998e-09 -2.59108e-10 2.03443e-09 4.90838e-09 -4.53732e-10 1.17933e-09 2.83996e-09 -2.59118e-10 7.73091 5.47488 0.417314 1.17932e-09 2.83999e-09 -2.59109e-10 2.90554 0.965183 0.102902 1.17933e-09 2.83999e-09 -2.59108e-10 10.2786 0.731801 0.0259123 1.17933e-09 2.83999e-09 -2.59103e-10 2.22167 -0.733487 -0.20892 -6.68567e-14 -1.05312e-13 1.55007e-13 -8.78206 32.9335 -39.4196 26.9763 -26.2585 -61.2894 0.143492 -10.7452 1.52823 -6.0441e-10 1.65324e-09 -8.28586e-10 -1.03695e-09 2.81042e-09 -1.44037e-09 -6.0442e-10 1.65325e-09 -8.28573e-10 -7.73091 5.47488 -0.417314 -6.04408e-10 1.65324e-09 -8.28582e-10 -2.90554 0.965183 -0.102902 -6.04425e-10 1.65327e-09 -8.28578e-10 -10.2786 0.731801 -0.0259123 -6.04408e-10 1.65324e-09 -8.28595e-10 -2.22167 -0.733487 0.20892 -2.03217e-16 0.0 -3.88251e-19 -21.5874 -2.8943 -0.013031 -0.000785822 -0.671845 -0.00636879 0.42528 3.56289 -0.00369399 2.03217e-16 0.0 3.88251e-19 8.13697 -10.1435 -5.1825 0.0480936 22.5605 -0.617431 6.9866 -19.4271 19.1113
-4.31916 84.1217 33.3153 -2.3919 -6.322 2.881 -5.41438 6.21425 -1.34257 1.7181 -0.954115 -0.46718 3.75092 2.06379 -0.192125 2.81064 14.1948 -1.7851 -0.0 0.0 0.0 -0.0 0.0 0.0 -3.83668e-14 -6.04387e-14 2.40182e-13 25.1638 62.7534 55.465 -28.4095 -34.5025 74.5244 -0.0324329 5.13371 0.723452 1.11685e-09 1.49791e-09 3.23036e-10 1.92801e-09 2.5931e-09 5.51634e-10 1.11685e-09 1.49789e-09 3.23027e-10 7.73091 5.47488 0.417314 1.11685e-09 1.49792e-09 3.23036e-10 2.90554 0.965183 0.102902 1.11686e-09 1.49792e-09 3.23036e-10 10.2786 0.731801 0.0259123 1.11685e-09 1.49792e-09 3.23039e-10 2.22167 -0.733487 -0.20892 -3.83667e-14 -6.04224e-14 2.40032e-13 -8.32117 33.3539 -39.675 26.9181 -26.0681 -60.9892 0.136333 -10.4688 1.48806 -5.46222e-10 4.44747e-10 -1.3606e-09 -9.31783e-10 7.01287e-10 -2.36042e-09 -5.46231e-10 4.44772e-10 -1.36059e-09 -7.73091 5.47488 -0.417314 -5.4622e-10 4.44751e-10 -1.3606e-09 -2.90554 0.965183 -0.102902 -5.46237e-10 4.44774e-10 -1.3606e-09 -10.2786 0.731801 -0.0259123 -5.46222e-10 4.44752e-10 -1.36061e-09 -2.22167 -0.733487 0.20892 -2.03217e-16 0.0 -3.88251e-19 -21.5873 -2.89481 -0.0130564 -0.00079401 -0.674907 -0.00643589 0.424327 3.56652 -0.00351126 2.03217e-16 0.0 3.88251e-19 8.11802 -10.0627 -5.17317 0.0478059 22.5472 -0.616696 6.97369 -19.4795 19.0444
-4.30465 84.1224 33.3168 -2.3977 -6.2474 2.8494 -5.26947 6.3159 -1.37333 1.72991 -0.945256 -0.475155 3.63703 1.98844 -0.219885 2.78567 14.2946 -1.81642 -0.0 0.0 0.0 -0.0 0.0 0.0 -2.39724e-14 -5.1654e-14 2.66675e-13 25.5856 62.5339 54.9151 -28.3902 -34.2052 74.0683 -0.0350421 5.35472 0.754752 9.35199e-10 4.52565e-10 6.40648e-10 1.61547e-09 7.88209e-10 1.10138e-09 9.35201e-10 4.52536e-10 6.40639e-10 7.73091 5.47488 0.417314 9.35198e-10 4.52566e-10 6.40649e-10 2.90554 0.965183 0.102902 9.35206e-10 4.52565e-10 6.40648e-10 10.2786 0.731801 0.0259123 9.35195e-10 4.52566e-10 6.40652e-10 2.22167 -0.733487 -0.20892 -2.39706e-14 -5.16396e-14 2.66532e-13 -8.34924 33.8138 -39.9156 26.8748 -25.9289 -60.7696 0.132712 -10.3231 1.46693 -4.66405e-10 -3.48828e-10 -1.49478e-09 -7.92863e-10 -6.73319e-10 -2.59176e-09 -4.66412e-10 -3.48802e-10 -1.49477e-09 -7.73091 5.47488 -0.417314 -4.66403e-10 -3.48823e-10 -1.49477e-09 -2.90554 0.965183 -0.102902 -4.66418e-10 -3.48804e-10 -1.49477e-09 -10.2786 0.731801 -0.0259123 -4.66406e-10 -3.48822e-10 -1.49479e-09 -2.22167 -0.733487 0.20892 -2.03217e-16 0.0 -3.88251e-19 -21.5855 -2.89639 -0.013115 -0.000807039 -0.67444 -0.00655147 0.422765 3.56771 -0.00327144 2.03217e-16 0.0 3.88251e-19 8.06591 -10.0124 -5.17188 0.0478258 22.5424 -0.615919 6.95619 -19.4802 18.9991
-4.28584 84.1252 33.3309 -2.4036 -6.1564 2.7932 -5.11138 6.41946 -1.44897 1.71606 -0.935287 -0.495847 3.49891 1.90808 -0.238263 2.80693 14.4182 -1.82989 -0.0 0.0 0.0 -0.0 0.0 0.0 -1.57656e-14 -6.133e-14 2.59948e-13 26.2876 62.1835 53.9905 -28.3814 -34.0322 73.7819 -0.039781 5.70872 0.804966 6.63587e-10 -5.11592e-10 8.28617e-10 1.14749e-09 -8.77688e-10 1.42804e-09 6.63593e-10 -5.11627e-10 8.28609e-10 7.73091 5.47488 0.417314 6.63589e-10 -5.116e-10 8.28618e-10 2.90554 0.965183 0.102902 6.63594e-10 -5.116e-10 8.28617e-10 10.2786 0.731801 0.0259123 6.6358e-10 -5.116e-10 8.28622e-10 2.22167 -0.733487 -0.20892 -1.57677e-14 -6.13207e-14 2.59815e-13 -8.75092 34.3336 -40.1993 26.8345 -25.8008 -60.5675 0.131284 -10.2676 1.45886 -3.54556e-10 -1.02877e-09 -1.41076e-09 -6.00579e-10 -1.84148e-09 -2.44517e-09 -3.54559e-10 -1.02875e-09 -1.41075e-09 -7.73091 5.47488 -0.417314 -3.54553e-10 -1.02877e-09 -1.41076e-09 -2.90554 0.965183 -0.102902 -3.54564e-10 -1.02875e-09 -1.41076e-09 -10.2786 0.731801 -0.0259123 -3.54556e-10 -1.02877e-09 -1.41077e-09 -2.22167 -0.733487 0.20892 -2.03217e-16 0.0 -3.88251e-19 -21.5826 -2.89894 -0.013196 -0.000822345 -0.671091 -0.00669209 0.421003 3.567 -0.00302642 2.03217e-16 0.0 3.88251e-19 7.99436 -9.98598 -5.1832 0.0481187 22.5479 -0.615048 6.9282 -19.4495 18.9486
